<?xml version="1.0" encoding="UTF-8" standalone="no"?>
<svg
   xmlns:dc="http://purl.org/dc/elements/1.1/"
   xmlns:cc="http://creativecommons.org/ns#"
   xmlns:rdf="http://www.w3.org/1999/02/22-rdf-syntax-ns#"
   xmlns:svg="http://www.w3.org/2000/svg"
   xmlns="http://www.w3.org/2000/svg"
   xmlns:sodipodi="http://sodipodi.sourceforge.net/DTD/sodipodi-0.dtd"
   xmlns:inkscape="http://www.inkscape.org/namespaces/inkscape"
   width="21"
   height="32"
   viewBox="0 0 21 32"
   fill="none"
   version="1.1"
   id="svg12"
   sodipodi:docname="anchor.svg"
   inkscape:version="0.92.4 (5da689c313, 2019-01-14)">
  <metadata
     id="metadata18">
    <rdf:RDF>
      <cc:Work
         rdf:about="">
        <dc:format>image/svg+xml</dc:format>
        <dc:type
           rdf:resource="http://purl.org/dc/dcmitype/StillImage" />
      </cc:Work>
    </rdf:RDF>
  </metadata>
  <defs
     id="defs16" />
  <sodipodi:namedview
     pagecolor="#ffffff"
     bordercolor="#666666"
     borderopacity="1"
     objecttolerance="10"
     gridtolerance="10"
     guidetolerance="10"
     inkscape:pageopacity="0"
     inkscape:pageshadow="2"
     inkscape:window-width="1920"
     inkscape:window-height="935"
     id="namedview14"
     showgrid="false"
     inkscape:zoom="7.375"
     inkscape:cx="10.5"
     inkscape:cy="16"
     inkscape:window-x="-8"
     inkscape:window-y="114"
     inkscape:window-maximized="1"
     inkscape:current-layer="svg12" />
  <path
     fill-rule="evenodd"
     clip-rule="evenodd"
     d="M3.83743 30.4449C1.32971 28.7702 0 25.7096 0 20.9065H3.7893C3.7893 25.0723 4.91975 26.6111 5.94183 27.2936C7.1558 28.1043 8.86208 28.2107 11.0935 28.2107V32C9.0464 32 6.15325 31.9914 3.83743 30.4449Z"
     fill="#FD00DF"
     id="path2"
     style="fill:#584e58;fill-opacity:0.94117647" />
  <path
     fill-rule="evenodd"
     clip-rule="evenodd"
     d="M17.0952 30.4449C19.6029 28.7702 20.9326 25.7096 20.9326 20.9065H17.1433C17.1433 25.0723 16.0129 26.6111 14.9908 27.2936C13.7768 28.1043 12.0705 28.2107 9.83911 28.2107V32C11.8862 32 14.7794 31.9914 17.0952 30.4449Z"
     fill="#FD00DF"
     id="path4"
     style="fill:#584e58;fill-opacity:0.94117647" />
  <path
     fill-rule="evenodd"
     clip-rule="evenodd"
     d="M12.5701 11.2895V30.3144H8.78076V11.2895H12.5701Z"
     fill="#FD00DF"
     id="path6"
     style="fill:#584e58;fill-opacity:0.94117647" />
  <path
     fill-rule="evenodd"
     clip-rule="evenodd"
     d="M17.3655 18.4108H3.98535V14.6215H17.3655V18.4108Z"
     fill="#FD00DF"
     id="path8"
     style="fill:#584e58;fill-opacity:0.94117647" />
  <path
     fill-rule="evenodd"
     clip-rule="evenodd"
     d="M10.4662 8.33646C11.7219 8.33646 12.7398 7.31855 12.7398 6.06288C12.7398 4.80722 11.7219 3.7893 10.4662 3.7893C9.21054 3.7893 8.19262 4.80722 8.19262 6.06288C8.19262 7.31855 9.21054 8.33646 10.4662 8.33646ZM10.4662 12.1258C13.8146 12.1258 16.5291 9.41132 16.5291 6.06288C16.5291 2.71445 13.8146 0 10.4662 0C7.11777 0 4.40332 2.71445 4.40332 6.06288C4.40332 9.41132 7.11777 12.1258 10.4662 12.1258Z"
     fill="#FD00DF"
     id="path10"
     style="fill:#584e58;fill-opacity:0.94117647" />
</svg>
