<?xml version="1.0" encoding="UTF-8" standalone="no"?>
<svg
   xmlns:dc="http://purl.org/dc/elements/1.1/"
   xmlns:cc="http://creativecommons.org/ns#"
   xmlns:rdf="http://www.w3.org/1999/02/22-rdf-syntax-ns#"
   xmlns:svg="http://www.w3.org/2000/svg"
   xmlns="http://www.w3.org/2000/svg"
   xmlns:sodipodi="http://sodipodi.sourceforge.net/DTD/sodipodi-0.dtd"
   xmlns:inkscape="http://www.inkscape.org/namespaces/inkscape"
   width="33"
   height="32"
   viewBox="0 0 33 32"
   fill="none"
   version="1.1"
   id="svg4"
   sodipodi:docname="at.svg"
   inkscape:version="0.92.4 (5da689c313, 2019-01-14)">
  <metadata
     id="metadata10">
    <rdf:RDF>
      <cc:Work
         rdf:about="">
        <dc:format>image/svg+xml</dc:format>
        <dc:type
           rdf:resource="http://purl.org/dc/dcmitype/StillImage" />
      </cc:Work>
    </rdf:RDF>
  </metadata>
  <defs
     id="defs8" />
  <sodipodi:namedview
     pagecolor="#ffffff"
     bordercolor="#666666"
     borderopacity="1"
     objecttolerance="10"
     gridtolerance="10"
     guidetolerance="10"
     inkscape:pageopacity="0"
     inkscape:pageshadow="2"
     inkscape:window-width="1920"
     inkscape:window-height="935"
     id="namedview6"
     showgrid="false"
     inkscape:zoom="7.375"
     inkscape:cx="16.5"
     inkscape:cy="16"
     inkscape:window-x="-8"
     inkscape:window-y="114"
     inkscape:window-maximized="1"
     inkscape:current-layer="svg4" />
  <path
     d="M16.4963 32C20.4904 32 23.9409 31.1492 25.4298 30.1566L23.9173 25.9025C22.3811 26.5643 19.6869 27.0842 16.8744 27.0842C9.42984 27.0842 5.31758 23.3028 5.29394 16.2127C5.31758 10.2097 8.81536 4.86854 16.969 4.86854C21.4357 4.86854 27.8641 5.86115 27.8405 14.7001C27.8641 18.8124 26.8242 20.7031 25.7134 20.7031C25.3117 20.7031 24.9808 20.4668 24.9572 19.5214V7.42097H20.4668V8.74446H20.2777C19.8287 7.70458 16.8981 6.6647 14.0384 7.18464C11.1315 7.70458 7.25554 10.0679 7.2319 16.3545C7.25554 22.6411 11.1315 25.099 14.6056 25.3353C17.2762 25.5244 20.3486 24.5318 20.8922 23.0665H21.034C21.0458 23.1256 21.0576 23.1846 21.0694 23.2437C21.3058 24.5554 21.5421 25.7962 24.8626 25.4771C30.0384 25.0044 32.969 21.743 32.9453 15.1256C32.969 5.43574 26.7297 0 16.969 0C6.12112 0 0.0236337 6.8065 0 16.4963C0.0236337 26.2334 6.16839 32 16.4963 32ZM16.4963 20.4668C13.4003 20.4668 12.4077 18.387 12.384 16.2127C12.4077 13.5657 13.8257 12.195 16.4018 12.195C19.4978 12.195 19.9705 14.0857 19.9941 16.1654C20.065 18.9069 19.2142 20.4668 16.4963 20.4668Z"
     fill="#FD00DF"
     id="path2"
     style="fill:#dffc00;fill-opacity:0.96907216" />
</svg>
