<?xml version="1.0" encoding="UTF-8" standalone="no"?>
<svg
   xmlns:dc="http://purl.org/dc/elements/1.1/"
   xmlns:cc="http://creativecommons.org/ns#"
   xmlns:rdf="http://www.w3.org/1999/02/22-rdf-syntax-ns#"
   xmlns:svg="http://www.w3.org/2000/svg"
   xmlns="http://www.w3.org/2000/svg"
   xmlns:sodipodi="http://sodipodi.sourceforge.net/DTD/sodipodi-0.dtd"
   xmlns:inkscape="http://www.inkscape.org/namespaces/inkscape"
   width="162"
   height="55"
   viewBox="0 0 162 55"
   version="1.1"
   id="svg16"
   sodipodi:docname="logo.svg"
   style="fill:none"
   inkscape:version="0.92.4 (5da689c313, 2019-01-14)">
  <metadata
     id="metadata22">
    <rdf:RDF>
      <cc:Work
         rdf:about="">
        <dc:format>image/svg+xml</dc:format>
        <dc:type
           rdf:resource="http://purl.org/dc/dcmitype/StillImage" />
        <dc:title></dc:title>
      </cc:Work>
    </rdf:RDF>
  </metadata>
  <defs
     id="defs20" />
  <sodipodi:namedview
     pagecolor="#ffffff"
     bordercolor="#666666"
     borderopacity="1"
     objecttolerance="10"
     gridtolerance="10"
     guidetolerance="10"
     inkscape:pageopacity="0"
     inkscape:pageshadow="2"
     inkscape:window-width="1920"
     inkscape:window-height="935"
     id="namedview18"
     showgrid="false"
     fit-margin-top="0"
     fit-margin-left="0"
     fit-margin-right="0"
     fit-margin-bottom="0"
     inkscape:zoom="5.1615275"
     inkscape:cx="100.78317"
     inkscape:cy="-5.2036854"
     inkscape:window-x="-8"
     inkscape:window-y="114"
     inkscape:window-maximized="1"
     inkscape:current-layer="svg16" />
  <rect
     width="162"
     height="42"
     id="rect2"
     x="0"
     y="0"
     style="fill:#dffc00" />
  <path
     style="fill:#585858;fill-opacity:1;stroke:none"
     d="m 93.710938,8.5 c -2.5568,0 -4.636719,1.925522 -4.636719,4.294922 0,2.3693 2.079918,4.296875 4.636719,4.296875 2.556798,0 4.636718,-1.927575 4.636718,-4.296875 0,-2.3694 -2.07992,-4.294922 -4.636718,-4.294922 z m 11.626952,0 c -2.557,0 -4.63672,1.925522 -4.63672,4.294922 0,2.3693 2.07972,4.296875 4.63672,4.296875 2.557,0 4.63477,-1.927575 4.63477,-4.296875 0,-2.3694 -2.07777,-4.294922 -4.63477,-4.294922 z M 58.070312,11.091797 V 42 H 84.6875 c 1.348786,-1.611386 2.087891,-3.620991 2.087891,-5.886719 0,-4.9261 -3.630382,-8.147959 -8.113282,-8.318359 v -0.339844 c 4.0397,-0.8012 6.75,-3.784419 6.75,-7.636719 0,-5.3182 -4.227778,-8.726562 -12.205078,-8.726562 z m 9.476563,7.431641 h 4.023437 c 2.3522,0 4.091797,1.192143 4.091797,3.339843 0,2.1478 -1.739915,3.341797 -4.228515,3.341797 h -3.886719 z m 62.619145,0.953124 c -3.853,0 -6.90488,2.01146 -8.04688,5.31836 h -0.27148 v -4.976563 h -8.93164 V 42 h 9.4082 V 31.273438 c 0.017,-2.590901 1.48336,-4.160157 3.81836,-4.160157 2.369,0 3.767,1.569256 3.75,4.160157 V 42 h 9.41015 V 29.294922 c 0.017,-5.6932 -3.58071,-9.818358 -9.13671,-9.81836 z m 23.65625,0 c -7.823,0 -11.676,4.092535 -12,8.865235 h 8.6582 c 0.222,-1.6193 1.41508,-2.386719 3.20508,-2.386719 1.636,0 2.79492,0.749681 2.79492,2.113281 v 0.06836 c 0,1.517 -1.67036,1.994459 -6.06836,2.318359 -5.403,0.392 -9.61133,2.574058 -9.61133,8.31836 0,1.232126 0.20307,2.301612 0.56836,3.226562 H 162 V 21.515625 c -2.03973,-1.275481 -4.81207,-2.039062 -8.17773,-2.039063 z M 110.043,19.818359 h -9.41016 V 20 h -0.0664 v 21.351562 c 0,3.226301 -2.519151,5.541016 -5.760151,5.541016 -3.018998,0 -5.509842,-2.009734 -5.80043,-4.892578 h 9.410187 V 19.818359 H 89.005859 V 20 42 51.878137 C 90.411123,54.178946 95.133997,55 97.324894,55 106.2499,55 110.043,49.9054 110.043,42 Z m -42.496125,11.25 h 4.568359 c 2.8807,0 4.636719,1.36376 4.636719,3.81836 0,2.3352 -1.583984,3.544922 -4.771484,3.544922 h -4.433594 z m 89.003905,3.476563 v 2.18164 c 0,2.3863 -2.03016,3.75 -4.16016,3.75 -1.60299,0 -2.72851,-0.7841 -2.72851,-2.25 0,-1.3466 0.95667,-2.385662 3.13867,-2.726562 1.5,-0.2386 2.761,-0.545978 3.75,-0.955078 z"
     id="path4"
     inkscape:connector-curvature="0"
     sodipodi:nodetypes="sssssssssscccsccssccsssccscccccccsccccssccssscscccsccccsscccccccscccssscccssscc" />
</svg>
