<?xml version="1.0" encoding="UTF-8" standalone="no"?>
<svg
   xmlns:dc="http://purl.org/dc/elements/1.1/"
   xmlns:cc="http://creativecommons.org/ns#"
   xmlns:rdf="http://www.w3.org/1999/02/22-rdf-syntax-ns#"
   xmlns:svg="http://www.w3.org/2000/svg"
   xmlns="http://www.w3.org/2000/svg"
   xmlns:sodipodi="http://sodipodi.sourceforge.net/DTD/sodipodi-0.dtd"
   xmlns:inkscape="http://www.inkscape.org/namespaces/inkscape"
   width="27"
   height="32"
   viewBox="0 0 27 32"
   fill="none"
   version="1.1"
   id="svg4"
   sodipodi:docname="bijnagraph.svg"
   inkscape:version="0.92.4 (5da689c313, 2019-01-14)">
  <metadata
     id="metadata10">
    <rdf:RDF>
      <cc:Work
         rdf:about="">
        <dc:format>image/svg+xml</dc:format>
        <dc:type
           rdf:resource="http://purl.org/dc/dcmitype/StillImage" />
      </cc:Work>
    </rdf:RDF>
  </metadata>
  <defs
     id="defs8" />
  <sodipodi:namedview
     pagecolor="#ffffff"
     bordercolor="#666666"
     borderopacity="1"
     objecttolerance="10"
     gridtolerance="10"
     guidetolerance="10"
     inkscape:pageopacity="0"
     inkscape:pageshadow="2"
     inkscape:window-width="732"
     inkscape:window-height="480"
     id="namedview6"
     showgrid="false"
     inkscape:zoom="7.375"
     inkscape:cx="13.5"
     inkscape:cy="16"
     inkscape:window-x="0"
     inkscape:window-y="0"
     inkscape:window-maximized="0"
     inkscape:current-layer="svg4" />
  <path
     fill-rule="evenodd"
     clip-rule="evenodd"
     d="M11.25 0H26.3125V32H12.4375C5.125 32 1.25 28.875 1.25 24C1.25 20.4687 3.73437 17.7344 7.4375 17V16.6875C3.32812 16.5312 0 13.5781 0 9.0625C0 3.79688 4.29687 0 11.25 0ZM17.625 13.6875V6.9375H13.5625C10.6406 6.9375 9.1875 8.04688 9.1875 10.1875C9.1875 12.4375 10.7969 13.6875 13.4375 13.6875H17.625ZM17.625 25.1875V19.0625H14.0625C11.7812 19.0625 10.1875 20.1562 10.1875 22.125C10.1875 24.0938 11.7812 25.1875 13.9375 25.1875H17.625ZM24.22 29.8486H19.7828V2.48554H24.22V29.8486Z"
     fill="#FD00DF"
     id="path2"
     style="fill:#585858;fill-opacity:1" />
</svg>
