<svg width="17" height="32" viewBox="0 0 17 32" fill="none" xmlns="http://www.w3.org/2000/svg">
<path d="M10.4183 0H6.81565L6.58055 24.1589H9.6534L10.4183 0ZM8.11698 32C9.42823 32 10.5011 30.9272 10.5011 29.6159C10.5011 28.3046 9.42823 27.2318 8.11698 27.2318C6.80572 27.2318 5.73287 28.3046 5.73287 29.6159C5.73287 30.9272 6.80572 32 8.11698 32Z" fill="#FD00DF"/>
<path d="M6.45695 24.2296H9.63576V24.0706C9.68874 20.7859 10.5364 19.3554 12.8675 17.8985C15.1987 16.4812 16.0762 14.4415 16.0762 11.5144C16.0762 7.38191 12.5563 4.36204 7.89404 4.36204C3.60265 4.36204 0.198676 7.01105 0 11.5144H3.33775C3.53642 8.38853 5.72185 7.11701 7.89404 7.11701C10.3841 7.11701 12.8974 8.75939 12.8974 11.3554C12.8974 13.4614 12.6921 14.4713 11.1424 15.4117C8.54636 16.9879 6.49669 19.0243 6.45695 24.0706V24.2296Z" fill="#FD00DF"/>
</svg>
