<svg width="179" height="56" viewBox="0 0 179 56" fill="none" xmlns="http://www.w3.org/2000/svg">
<path d="M7.4 17C7.224 16.44 6.968 15.84 6.632 15.2C6.312 14.544 5.952 13.912 5.552 13.304C5.152 12.68 4.728 12.104 4.28 11.576C3.848 11.032 3.432 10.576 3.032 10.208V17H0.08V2.144H3.032V8.312C3.384 7.864 3.752 7.368 4.136 6.824C4.52 6.28 4.88 5.736 5.216 5.192C5.568 4.648 5.888 4.112 6.176 3.584C6.464 3.056 6.704 2.576 6.896 2.144H10.232C10.008 2.576 9.736 3.072 9.416 3.632C9.112 4.176 8.76 4.752 8.36 5.36C7.96 5.952 7.528 6.56 7.064 7.184C6.616 7.808 6.144 8.408 5.648 8.984C6.144 9.464 6.648 10.016 7.16 10.64C7.672 11.264 8.152 11.936 8.6 12.656C9.064 13.36 9.48 14.088 9.848 14.84C10.216 15.576 10.512 16.296 10.736 17H7.4ZM17.816 2.48C17.816 3.056 17.632 3.512 17.264 3.848C16.896 4.184 16.456 4.352 15.944 4.352C15.432 4.352 14.992 4.184 14.624 3.848C14.272 3.512 14.096 3.056 14.096 2.48C14.096 1.888 14.272 1.424 14.624 1.088C14.992 0.751999 15.432 0.584 15.944 0.584C16.456 0.584 16.896 0.751999 17.264 1.088C17.632 1.424 17.816 1.888 17.816 2.48ZM22.208 16.52C21.6 16.808 21.024 17 20.48 17.096C19.952 17.208 19.464 17.264 19.016 17.264C18.248 17.264 17.6 17.152 17.072 16.928C16.56 16.704 16.144 16.384 15.824 15.968C15.52 15.536 15.304 15.016 15.176 14.408C15.048 13.8 14.984 13.104 14.984 12.32V8.168H11.864V5.72H17.936V12.704C17.936 13.376 18.056 13.88 18.296 14.216C18.552 14.536 18.968 14.696 19.544 14.696C19.816 14.696 20.144 14.664 20.528 14.6C20.912 14.52 21.344 14.368 21.824 14.144L22.208 16.52ZM31.256 11.456C31.256 10.448 31.056 9.624 30.656 8.984C30.256 8.328 29.648 8 28.832 8C28.608 8 28.368 8.016 28.112 8.048C27.856 8.064 27.64 8.08 27.464 8.096V14.288C27.656 14.416 27.912 14.52 28.232 14.6C28.552 14.68 28.872 14.72 29.192 14.72C29.896 14.72 30.416 14.44 30.752 13.88C31.088 13.304 31.256 12.496 31.256 11.456ZM34.256 11.36C34.256 12.224 34.16 13.024 33.968 13.76C33.776 14.48 33.496 15.104 33.128 15.632C32.76 16.144 32.296 16.544 31.736 16.832C31.176 17.12 30.528 17.264 29.792 17.264C29.04 17.264 28.264 17.08 27.464 16.712V20.96H24.512V6.08C25.056 5.904 25.72 5.76 26.504 5.648C27.304 5.536 28.088 5.48 28.856 5.48C30.6 5.48 31.936 6.008 32.864 7.064C33.792 8.12 34.256 9.552 34.256 11.36ZM46.208 16.52C46.16 16.552 46.048 16.608 45.872 16.688C45.712 16.768 45.496 16.856 45.224 16.952C44.952 17.032 44.616 17.104 44.216 17.168C43.832 17.232 43.392 17.264 42.896 17.264C41.536 17.264 40.544 16.864 39.92 16.064C39.296 15.248 38.984 14.064 38.984 12.512V2.936H35.864V0.487999H41.936V12.728C41.936 13.496 42.088 14.016 42.392 14.288C42.696 14.56 43.08 14.696 43.544 14.696C44.136 14.696 44.632 14.616 45.032 14.456C45.432 14.296 45.696 14.192 45.824 14.144L46.208 16.52ZM53.816 2.48C53.816 3.056 53.632 3.512 53.264 3.848C52.896 4.184 52.456 4.352 51.944 4.352C51.432 4.352 50.992 4.184 50.624 3.848C50.272 3.512 50.096 3.056 50.096 2.48C50.096 1.888 50.272 1.424 50.624 1.088C50.992 0.751999 51.432 0.584 51.944 0.584C52.456 0.584 52.896 0.751999 53.264 1.088C53.632 1.424 53.816 1.888 53.816 2.48ZM58.208 16.52C57.6 16.808 57.024 17 56.48 17.096C55.952 17.208 55.464 17.264 55.016 17.264C54.248 17.264 53.6 17.152 53.072 16.928C52.56 16.704 52.144 16.384 51.824 15.968C51.52 15.536 51.304 15.016 51.176 14.408C51.048 13.8 50.984 13.104 50.984 12.32V8.168H47.864V5.72H53.936V12.704C53.936 13.376 54.056 13.88 54.296 14.216C54.552 14.536 54.968 14.696 55.544 14.696C55.816 14.696 56.144 14.664 56.528 14.6C56.912 14.52 57.344 14.368 57.824 14.144L58.208 16.52ZM60.512 6.08C61.04 5.936 61.688 5.8 62.456 5.672C63.24 5.544 64.088 5.48 65 5.48C65.896 5.48 66.64 5.608 67.232 5.864C67.824 6.104 68.288 6.456 68.624 6.92C68.976 7.368 69.224 7.912 69.368 8.552C69.512 9.176 69.584 9.872 69.584 10.64V17H66.632V11.024C66.632 9.968 66.512 9.208 66.272 8.744C66.032 8.28 65.544 8.048 64.808 8.048C64.584 8.048 64.36 8.056 64.136 8.072C63.928 8.088 63.704 8.112 63.464 8.144V17H60.512V6.08ZM74.792 11C74.792 11.928 74.96 12.64 75.296 13.136C75.632 13.616 76.16 13.856 76.88 13.856C77.2 13.856 77.496 13.816 77.768 13.736C78.056 13.656 78.312 13.552 78.536 13.424V8C78.312 7.952 78.112 7.92 77.936 7.904C77.76 7.888 77.576 7.88 77.384 7.88C75.656 7.88 74.792 8.92 74.792 11ZM81.512 15.632C81.512 17.472 81.064 18.832 80.168 19.712C79.288 20.592 77.864 21.032 75.896 21.032C75.192 21.032 74.512 20.96 73.856 20.816C73.216 20.672 72.6 20.504 72.008 20.312L72.56 17.816C73.024 17.992 73.512 18.152 74.024 18.296C74.536 18.456 75.176 18.536 75.944 18.536C76.456 18.536 76.88 18.472 77.216 18.344C77.552 18.232 77.816 18.072 78.008 17.864C78.2 17.656 78.336 17.408 78.416 17.12C78.496 16.848 78.536 16.552 78.536 16.232V15.776C78.12 15.936 77.736 16.056 77.384 16.136C77.048 16.216 76.68 16.256 76.28 16.256C74.808 16.256 73.688 15.792 72.92 14.864C72.168 13.936 71.792 12.648 71.792 11C71.792 9.144 72.304 7.76 73.328 6.848C74.352 5.936 75.744 5.48 77.504 5.48C78.736 5.48 80.072 5.68 81.512 6.08V15.632ZM52.952 36.312C51.992 36.312 51.184 36.184 50.528 35.928C49.888 35.656 49.376 35.272 48.992 34.776C48.608 34.28 48.336 33.68 48.176 32.976C48.016 32.272 47.936 31.488 47.936 30.624V21.144H50.912V30.432C50.912 31.056 50.944 31.584 51.008 32.016C51.072 32.432 51.176 32.768 51.32 33.024C51.48 33.28 51.696 33.464 51.968 33.576C52.24 33.688 52.584 33.744 53 33.744C53.416 33.744 53.76 33.688 54.032 33.576C54.304 33.464 54.52 33.28 54.68 33.024C54.84 32.752 54.952 32.408 55.016 31.992C55.08 31.56 55.112 31.032 55.112 30.408V21.144H58.064V30.624C58.064 31.488 57.984 32.272 57.824 32.976C57.664 33.68 57.384 34.28 56.984 34.776C56.584 35.272 56.056 35.656 55.4 35.928C54.744 36.184 53.928 36.312 52.952 36.312ZM67.544 36C67.24 35.184 66.864 34.28 66.416 33.288C65.984 32.296 65.528 31.304 65.048 30.312C64.584 31.256 64.12 32.24 63.656 33.264C63.192 34.272 62.792 35.184 62.456 36H59.264C59.424 35.568 59.656 35.048 59.96 34.44C60.28 33.832 60.624 33.176 60.992 32.472C61.376 31.768 61.776 31.048 62.192 30.312C62.608 29.56 63.008 28.84 63.392 28.152L59.504 21.144H62.696L65.048 25.896L67.52 21.144H70.496L66.704 28.08C67.136 28.768 67.56 29.488 67.976 30.24C68.392 30.992 68.776 31.728 69.128 32.448C69.496 33.152 69.816 33.816 70.088 34.44C70.36 35.048 70.576 35.568 70.736 36H67.544ZM52.952 55.312C51.992 55.312 51.184 55.184 50.528 54.928C49.888 54.656 49.376 54.272 48.992 53.776C48.608 53.28 48.336 52.68 48.176 51.976C48.016 51.272 47.936 50.488 47.936 49.624V40.144H50.912V49.432C50.912 50.056 50.944 50.584 51.008 51.016C51.072 51.432 51.176 51.768 51.32 52.024C51.48 52.28 51.696 52.464 51.968 52.576C52.24 52.688 52.584 52.744 53 52.744C53.416 52.744 53.76 52.688 54.032 52.576C54.304 52.464 54.52 52.28 54.68 52.024C54.84 51.752 54.952 51.408 55.016 50.992C55.08 50.56 55.112 50.032 55.112 49.408V40.144H58.064V49.624C58.064 50.488 57.984 51.272 57.824 51.976C57.664 52.68 57.384 53.28 56.984 53.776C56.584 54.272 56.056 54.656 55.4 54.928C54.744 55.184 53.928 55.312 52.952 55.312ZM67.544 55C67.24 54.184 66.864 53.28 66.416 52.288C65.984 51.296 65.528 50.304 65.048 49.312C64.584 50.256 64.12 51.24 63.656 52.264C63.192 53.272 62.792 54.184 62.456 55H59.264C59.424 54.568 59.656 54.048 59.96 53.44C60.28 52.832 60.624 52.176 60.992 51.472C61.376 50.768 61.776 50.048 62.192 49.312C62.608 48.56 63.008 47.84 63.392 47.152L59.504 40.144H62.696L65.048 44.896L67.52 40.144H70.496L66.704 47.08C67.136 47.768 67.56 48.488 67.976 49.24C68.392 49.992 68.776 50.728 69.128 51.448C69.496 52.152 69.816 52.816 70.088 53.44C70.36 54.048 70.576 54.568 70.736 55H67.544Z" fill="#DFDFDF"/>
<path d="M96.296 17V14.552H99.536V4.592H96.296V2.144H105.728V4.592H102.512V14.552H105.728V17H96.296ZM115.52 17C114.848 15.352 114.112 13.712 113.312 12.08C112.528 10.432 111.68 8.784 110.768 7.136V17H108.104V2.144H110.48C110.928 2.848 111.376 3.616 111.824 4.448C112.272 5.264 112.704 6.08 113.12 6.896C113.552 7.712 113.944 8.504 114.296 9.272C114.664 10.04 114.976 10.712 115.232 11.288V2.144H117.896V17H115.52ZM124.568 14.84C125.064 14.84 125.472 14.792 125.792 14.696C126.128 14.584 126.392 14.44 126.584 14.264C126.776 14.072 126.904 13.864 126.968 13.64C127.048 13.4 127.088 13.16 127.088 12.92C127.088 12.616 127 12.344 126.824 12.104C126.648 11.864 126.424 11.656 126.152 11.48C125.88 11.288 125.576 11.12 125.24 10.976C124.904 10.816 124.568 10.672 124.232 10.544C123.784 10.384 123.32 10.2 122.84 9.992C122.36 9.784 121.92 9.52 121.52 9.2C121.136 8.88 120.816 8.488 120.56 8.024C120.304 7.544 120.176 6.952 120.176 6.248C120.176 4.856 120.624 3.768 121.52 2.984C122.432 2.2 123.68 1.808 125.264 1.808C126.176 1.808 126.968 1.912 127.64 2.12C128.328 2.328 128.904 2.56 129.368 2.816L128.504 5.096C128.104 4.872 127.656 4.68 127.16 4.52C126.68 4.36 126.12 4.28 125.48 4.28C123.912 4.28 123.128 4.848 123.128 5.984C123.128 6.272 123.208 6.528 123.368 6.752C123.528 6.96 123.728 7.152 123.968 7.328C124.224 7.488 124.504 7.632 124.808 7.76C125.128 7.888 125.44 8.008 125.744 8.12C126.208 8.296 126.688 8.496 127.184 8.72C127.696 8.928 128.16 9.216 128.576 9.584C129.008 9.936 129.36 10.384 129.632 10.928C129.904 11.456 130.04 12.128 130.04 12.944C130.04 14.336 129.584 15.416 128.672 16.184C127.776 16.936 126.408 17.312 124.568 17.312C123.336 17.312 122.352 17.184 121.616 16.928C120.88 16.656 120.328 16.408 119.96 16.184L120.824 13.784C121.256 14.04 121.768 14.28 122.36 14.504C122.968 14.728 123.704 14.84 124.568 14.84ZM138.104 17.312C136.008 17.312 134.408 16.64 133.304 15.296C132.2 13.952 131.648 12.04 131.648 9.56C131.648 8.328 131.816 7.232 132.152 6.272C132.488 5.312 132.952 4.504 133.544 3.848C134.152 3.176 134.864 2.672 135.68 2.336C136.512 1.984 137.416 1.808 138.392 1.808C138.92 1.808 139.392 1.856 139.808 1.952C140.24 2.032 140.616 2.128 140.936 2.24C141.256 2.352 141.52 2.472 141.728 2.6C141.952 2.728 142.12 2.824 142.232 2.888L141.464 5.24C141.096 5 140.648 4.8 140.12 4.64C139.608 4.464 139.016 4.376 138.344 4.376C137.88 4.376 137.424 4.464 136.976 4.64C136.544 4.8 136.152 5.08 135.8 5.48C135.464 5.864 135.184 6.384 134.96 7.04C134.752 7.696 134.648 8.512 134.648 9.488C134.648 11.184 134.936 12.488 135.512 13.4C136.104 14.296 137.064 14.744 138.392 14.744C139.16 14.744 139.792 14.656 140.288 14.48C140.8 14.304 141.208 14.128 141.512 13.952L142.256 16.28C141.84 16.536 141.272 16.776 140.552 17C139.848 17.208 139.032 17.312 138.104 17.312ZM146.648 9.56C146.648 10.28 146.672 10.96 146.72 11.6C146.784 12.224 146.896 12.768 147.056 13.232C147.232 13.696 147.472 14.064 147.776 14.336C148.08 14.608 148.488 14.744 149 14.744C149.496 14.744 149.896 14.608 150.2 14.336C150.52 14.064 150.76 13.696 150.92 13.232C151.096 12.752 151.208 12.2 151.256 11.576C151.32 10.952 151.352 10.28 151.352 9.56C151.352 8.84 151.32 8.168 151.256 7.544C151.208 6.904 151.096 6.352 150.92 5.888C150.76 5.424 150.528 5.056 150.224 4.784C149.92 4.512 149.512 4.376 149 4.376C148.488 4.376 148.08 4.512 147.776 4.784C147.472 5.056 147.232 5.432 147.056 5.912C146.896 6.376 146.784 6.92 146.72 7.544C146.672 8.168 146.648 8.84 146.648 9.56ZM143.648 9.56C143.648 7 144.12 5.072 145.064 3.776C146.008 2.464 147.32 1.808 149 1.808C150.744 1.808 152.072 2.464 152.984 3.776C153.896 5.072 154.352 7 154.352 9.56C154.352 12.12 153.888 14.056 152.96 15.368C152.032 16.664 150.72 17.312 149.024 17.312C147.28 17.312 145.944 16.664 145.016 15.368C144.104 14.056 143.648 12.12 143.648 9.56ZM160.136 1.976C160.984 1.976 161.752 2.072 162.44 2.264C163.128 2.456 163.72 2.752 164.216 3.152C164.712 3.552 165.088 4.064 165.344 4.688C165.616 5.296 165.752 6.016 165.752 6.848C165.752 7.712 165.576 8.496 165.224 9.2C164.872 9.904 164.288 10.44 163.472 10.808C163.744 11.224 164.032 11.688 164.336 12.2C164.64 12.696 164.936 13.224 165.224 13.784C165.512 14.328 165.784 14.88 166.04 15.44C166.312 15.984 166.544 16.504 166.736 17H163.64C163.272 16.04 162.84 15.12 162.344 14.24C161.864 13.344 161.344 12.44 160.784 11.528H159.248V17H156.296V2.36C156.584 2.296 156.896 2.24 157.232 2.192C157.584 2.128 157.936 2.088 158.288 2.072C158.64 2.04 158.976 2.016 159.296 2C159.616 1.984 159.896 1.976 160.136 1.976ZM162.752 6.824C162.752 6.04 162.512 5.464 162.032 5.096C161.552 4.728 160.92 4.544 160.136 4.544C160.024 4.544 159.888 4.552 159.728 4.568C159.568 4.568 159.408 4.584 159.248 4.616V9.08H159.896C160.904 9.08 161.632 8.888 162.08 8.504C162.528 8.104 162.752 7.544 162.752 6.824ZM168.512 17V2.144H177.512V4.592H171.464V7.928H176.72V10.376H171.464V14.552H178.04V17H168.512Z" fill="#FD00DF"/>
<path d="M87.248 33.6C87.328 33.616 87.416 33.624 87.512 33.624C87.608 33.624 87.696 33.624 87.776 33.624C88.448 33.624 89.008 33.496 89.456 33.24C89.92 32.984 90.288 32.632 90.56 32.184C90.848 31.736 91.048 31.208 91.16 30.6C91.288 29.976 91.352 29.296 91.352 28.56C91.352 27.92 91.304 27.296 91.208 26.688C91.112 26.08 90.944 25.544 90.704 25.08C90.464 24.616 90.136 24.248 89.72 23.976C89.304 23.688 88.768 23.544 88.112 23.544C87.984 23.544 87.84 23.552 87.68 23.568C87.52 23.568 87.376 23.584 87.248 23.616V33.6ZM94.352 28.56C94.352 29.936 94.176 31.112 93.824 32.088C93.488 33.048 93.016 33.832 92.408 34.44C91.8 35.048 91.072 35.496 90.224 35.784C89.392 36.056 88.472 36.192 87.464 36.192C86.936 36.192 86.416 36.16 85.904 36.096C85.408 36.048 84.872 35.96 84.296 35.832V21.336C84.968 21.192 85.6 21.096 86.192 21.048C86.784 21 87.336 20.976 87.848 20.976C88.824 20.976 89.712 21.12 90.512 21.408C91.328 21.696 92.016 22.152 92.576 22.776C93.136 23.384 93.568 24.168 93.872 25.128C94.192 26.072 94.352 27.216 94.352 28.56ZM96.512 36V21.144H105.512V23.592H99.464V26.928H104.72V29.376H99.464V33.552H106.04V36H96.512ZM112.568 33.84C113.064 33.84 113.472 33.792 113.792 33.696C114.128 33.584 114.392 33.44 114.584 33.264C114.776 33.072 114.904 32.864 114.968 32.64C115.048 32.4 115.088 32.16 115.088 31.92C115.088 31.616 115 31.344 114.824 31.104C114.648 30.864 114.424 30.656 114.152 30.48C113.88 30.288 113.576 30.12 113.24 29.976C112.904 29.816 112.568 29.672 112.232 29.544C111.784 29.384 111.32 29.2 110.84 28.992C110.36 28.784 109.92 28.52 109.52 28.2C109.136 27.88 108.816 27.488 108.56 27.024C108.304 26.544 108.176 25.952 108.176 25.248C108.176 23.856 108.624 22.768 109.52 21.984C110.432 21.2 111.68 20.808 113.264 20.808C114.176 20.808 114.968 20.912 115.64 21.12C116.328 21.328 116.904 21.56 117.368 21.816L116.504 24.096C116.104 23.872 115.656 23.68 115.16 23.52C114.68 23.36 114.12 23.28 113.48 23.28C111.912 23.28 111.128 23.848 111.128 24.984C111.128 25.272 111.208 25.528 111.368 25.752C111.528 25.96 111.728 26.152 111.968 26.328C112.224 26.488 112.504 26.632 112.808 26.76C113.128 26.888 113.44 27.008 113.744 27.12C114.208 27.296 114.688 27.496 115.184 27.72C115.696 27.928 116.16 28.216 116.576 28.584C117.008 28.936 117.36 29.384 117.632 29.928C117.904 30.456 118.04 31.128 118.04 31.944C118.04 33.336 117.584 34.416 116.672 35.184C115.776 35.936 114.408 36.312 112.568 36.312C111.336 36.312 110.352 36.184 109.616 35.928C108.88 35.656 108.328 35.408 107.96 35.184L108.824 32.784C109.256 33.04 109.768 33.28 110.36 33.504C110.968 33.728 111.704 33.84 112.568 33.84ZM120.296 36V33.552H123.536V23.592H120.296V21.144H129.728V23.592H126.512V33.552H129.728V36H120.296ZM138.488 23.376C137.784 23.376 137.192 23.504 136.712 23.76C136.232 24.016 135.832 24.376 135.512 24.84C135.208 25.288 134.984 25.832 134.84 26.472C134.712 27.096 134.648 27.792 134.648 28.56C134.648 30.336 134.928 31.648 135.488 32.496C136.048 33.328 136.872 33.744 137.96 33.744C138.136 33.744 138.328 33.736 138.536 33.72C138.744 33.704 138.936 33.68 139.112 33.648V28.224H142.064V35.64C141.712 35.768 141.16 35.912 140.408 36.072C139.672 36.232 138.776 36.312 137.72 36.312C136.792 36.312 135.952 36.152 135.2 35.832C134.464 35.496 133.832 35.008 133.304 34.368C132.776 33.712 132.368 32.904 132.08 31.944C131.792 30.968 131.648 29.84 131.648 28.56C131.648 27.296 131.816 26.184 132.152 25.224C132.488 24.248 132.944 23.432 133.52 22.776C134.096 22.12 134.776 21.632 135.56 21.312C136.344 20.976 137.184 20.808 138.08 20.808C138.656 20.808 139.168 20.856 139.616 20.952C140.08 21.032 140.48 21.128 140.816 21.24C141.152 21.352 141.424 21.472 141.632 21.6C141.856 21.728 142.024 21.824 142.136 21.888L141.368 24.24C141.016 24.016 140.584 23.816 140.072 23.64C139.56 23.464 139.032 23.376 138.488 23.376ZM151.52 36C150.848 34.352 150.112 32.712 149.312 31.08C148.528 29.432 147.68 27.784 146.768 26.136V36H144.104V21.144H146.48C146.928 21.848 147.376 22.616 147.824 23.448C148.272 24.264 148.704 25.08 149.12 25.896C149.552 26.712 149.944 27.504 150.296 28.272C150.664 29.04 150.976 29.712 151.232 30.288V21.144H153.896V36H151.52ZM156.512 36V21.144H165.512V23.592H159.464V26.928H164.72V29.376H159.464V33.552H166.04V36H156.512ZM172.136 20.976C172.984 20.976 173.752 21.072 174.44 21.264C175.128 21.456 175.72 21.752 176.216 22.152C176.712 22.552 177.088 23.064 177.344 23.688C177.616 24.296 177.752 25.016 177.752 25.848C177.752 26.712 177.576 27.496 177.224 28.2C176.872 28.904 176.288 29.44 175.472 29.808C175.744 30.224 176.032 30.688 176.336 31.2C176.64 31.696 176.936 32.224 177.224 32.784C177.512 33.328 177.784 33.88 178.04 34.44C178.312 34.984 178.544 35.504 178.736 36H175.64C175.272 35.04 174.84 34.12 174.344 33.24C173.864 32.344 173.344 31.44 172.784 30.528H171.248V36H168.296V21.36C168.584 21.296 168.896 21.24 169.232 21.192C169.584 21.128 169.936 21.088 170.288 21.072C170.64 21.04 170.976 21.016 171.296 21C171.616 20.984 171.896 20.976 172.136 20.976ZM174.752 25.824C174.752 25.04 174.512 24.464 174.032 24.096C173.552 23.728 172.92 23.544 172.136 23.544C172.024 23.544 171.888 23.552 171.728 23.568C171.568 23.568 171.408 23.584 171.248 23.616V28.08H171.896C172.904 28.08 173.632 27.888 174.08 27.504C174.528 27.104 174.752 26.544 174.752 25.824Z" fill="#FDDF00"/>
<path d="M84.512 55V40.144H93.512V42.592H87.464V45.928H92.72V48.376H87.464V52.552H94.04V55H84.512ZM103.52 55C102.848 53.352 102.112 51.712 101.312 50.08C100.528 48.432 99.68 46.784 98.768 45.136V55H96.104V40.144H98.48C98.928 40.848 99.376 41.616 99.824 42.448C100.272 43.264 100.704 44.08 101.12 44.896C101.552 45.712 101.944 46.504 102.296 47.272C102.664 48.04 102.976 48.712 103.232 49.288V40.144H105.896V55H103.52ZM114.488 42.376C113.784 42.376 113.192 42.504 112.712 42.76C112.232 43.016 111.832 43.376 111.512 43.84C111.208 44.288 110.984 44.832 110.84 45.472C110.712 46.096 110.648 46.792 110.648 47.56C110.648 49.336 110.928 50.648 111.488 51.496C112.048 52.328 112.872 52.744 113.96 52.744C114.136 52.744 114.328 52.736 114.536 52.72C114.744 52.704 114.936 52.68 115.112 52.648V47.224H118.064V54.64C117.712 54.768 117.16 54.912 116.408 55.072C115.672 55.232 114.776 55.312 113.72 55.312C112.792 55.312 111.952 55.152 111.2 54.832C110.464 54.496 109.832 54.008 109.304 53.368C108.776 52.712 108.368 51.904 108.08 50.944C107.792 49.968 107.648 48.84 107.648 47.56C107.648 46.296 107.816 45.184 108.152 44.224C108.488 43.248 108.944 42.432 109.52 41.776C110.096 41.12 110.776 40.632 111.56 40.312C112.344 39.976 113.184 39.808 114.08 39.808C114.656 39.808 115.168 39.856 115.616 39.952C116.08 40.032 116.48 40.128 116.816 40.24C117.152 40.352 117.424 40.472 117.632 40.6C117.856 40.728 118.024 40.824 118.136 40.888L117.368 43.24C117.016 43.016 116.584 42.816 116.072 42.64C115.56 42.464 115.032 42.376 114.488 42.376ZM120.296 55V52.552H123.536V42.592H120.296V40.144H129.728V42.592H126.512V52.552H129.728V55H120.296ZM139.52 55C138.848 53.352 138.112 51.712 137.312 50.08C136.528 48.432 135.68 46.784 134.768 45.136V55H132.104V40.144H134.48C134.928 40.848 135.376 41.616 135.824 42.448C136.272 43.264 136.704 44.08 137.12 44.896C137.552 45.712 137.944 46.504 138.296 47.272C138.664 48.04 138.976 48.712 139.232 49.288V40.144H141.896V55H139.52ZM144.512 55V40.144H153.512V42.592H147.464V45.928H152.72V48.376H147.464V52.552H154.04V55H144.512ZM156.512 55V40.144H165.512V42.592H159.464V45.928H164.72V48.376H159.464V52.552H166.04V55H156.512ZM172.136 39.976C172.984 39.976 173.752 40.072 174.44 40.264C175.128 40.456 175.72 40.752 176.216 41.152C176.712 41.552 177.088 42.064 177.344 42.688C177.616 43.296 177.752 44.016 177.752 44.848C177.752 45.712 177.576 46.496 177.224 47.2C176.872 47.904 176.288 48.44 175.472 48.808C175.744 49.224 176.032 49.688 176.336 50.2C176.64 50.696 176.936 51.224 177.224 51.784C177.512 52.328 177.784 52.88 178.04 53.44C178.312 53.984 178.544 54.504 178.736 55H175.64C175.272 54.04 174.84 53.12 174.344 52.24C173.864 51.344 173.344 50.44 172.784 49.528H171.248V55H168.296V40.36C168.584 40.296 168.896 40.24 169.232 40.192C169.584 40.128 169.936 40.088 170.288 40.072C170.64 40.04 170.976 40.016 171.296 40C171.616 39.984 171.896 39.976 172.136 39.976ZM174.752 44.824C174.752 44.04 174.512 43.464 174.032 43.096C173.552 42.728 172.92 42.544 172.136 42.544C172.024 42.544 171.888 42.552 171.728 42.568C171.568 42.568 171.408 42.584 171.248 42.616V47.08H171.896C172.904 47.08 173.632 46.888 174.08 46.504C174.528 46.104 174.752 45.544 174.752 44.824Z" fill="#DFFC00"/>
</svg>
