<svg width="15" height="32" viewBox="0 0 15 32" fill="none" xmlns="http://www.w3.org/2000/svg">
<g clip-path="url(#clip0)">
<path d="M3.2379 0C1.47839 0 0.0470434 1.32509 0.0470434 2.95565C0.0470434 4.58613 1.47838 5.91263 3.2379 5.91263C4.99742 5.91263 6.42876 4.58613 6.42876 2.95565C6.42876 1.32509 4.99742 0 3.2379 0ZM11.2392 0C9.47959 0 8.04838 1.32509 8.04838 2.95565C8.04838 4.58613 9.47959 5.91263 11.2392 5.91263C12.9989 5.91263 14.4288 4.58613 14.4288 2.95565C14.4288 1.32509 12.9989 0 11.2392 0ZM0 7.78898V7.91398V23.0538H6.47581V7.78898H0ZM0 23.0538V29.8521C0.967063 31.4355 4.21675 32 5.72446 32C11.8664 32 14.4772 28.494 14.4772 23.0538V7.78898H8.00134V7.91398H7.95565V22.6075C7.95565 24.8278 6.2223 26.4207 3.99194 26.4207C1.91435 26.4207 0.199975 25.0377 0 23.0538Z" fill="#FD00DF"/>
</g>
<defs>
<clipPath id="clip0">
<rect width="14.4772" height="32" fill="white"/>
</clipPath>
</defs>
</svg>
